[img]http://img12.imageshack.us/img12/1992/paranormalactivity4.jpg[/img]

[b][size=200][color=black]PLOT[/color][/size][/b]

[code]It has been five years since the disappearance of Katie and 
Hunter, and a suburban family witness strange events in their neighborhood 
when a woman and a mysterious child move in.[/code]

[b][size=200][color=black]IMDB[/color][/size][/b]

[code]http://www.imdb.com/title/tt2109184/[/code]

[b][size=200][color=black]MOVIE INFO[/color][/size][/b]

[code]Paranormal Activity 4 [2012] [UNRATED] BRRip x264 AAC-V3nom

Format                                   : MPEG-4
Format profile                           : Base Media / Version 2
Codec ID                                 : mp42
File size                                : 309 MiB
Duration                                 : 1h 36mn
Overall bit rate mode                    : Variable
Overall bit rate                         : 446 Kbps
Encoded date                             : UTC 2013-01-15 10:37:49
Tagged date                              : UTC 2013-01-15 11:06:26

Video
ID                                       : 1
Format                                   : AVC
Format/Info                              : Advanced Video Codec
Format profile                           : Main@L2.1
Format settings, CABAC                   : Yes
Format settings, ReFrames                : 4 frames
Codec ID                                 : avc1
Codec ID/Info                            : Advanced Video Coding
Duration                                 : 1h 36mn
Bit rate mode                            : Variable
Bit rate                                 : 348 Kbps
Width                                    : 624 pixels
Height                                   : 272 pixels
Display aspect ratio                     : 16:9
Original display aspect ratio            : 16:9
Frame rate mode                          : Variable
Frame rate                               : 23.976 fps
Minimum frame rate                       : 23.974 fps
Maximum frame rate                       : 48.754 fps
Color space                              : YUV
Chroma subsampling                       : 4:2:0
Bit depth                                : 8 bits
Scan type                                : Progressive
Bits/(Pixel*Frame)                       : 0.086
Stream size                              : 239 MiB (77%)
Writing library                          : x264 core 112

Audio
ID                                       : 2
Format                                   : AAC
Format/Info                              : Advanced Audio Codec
Format profile                           : LC
Codec ID                                 : 40
Duration                                 : 1h 36mn
Bit rate mode                            : Variable
Bit rate                                 : 96.0 Kbps
Maximum bit rate                         : 167 Kbps
Channel(s)                               : 2 channels
Channel positions                        : Front: L R
Sampling rate                            : 48.0 KHz
Compression mode                         : Lossy
Delay relative to video                  : 83ms
Stream size                              : 66.2 MiB (21%)
Encoded date                             : UTC 2013-01-15 10:37:49
Tagged date                              : UTC 2013-01-15 11:06:21[/code]

[b][size=200][color=black]SOURCE[/color][/size][/b]

[code]Paranormal.Activity.4.2012.UNRATED.BDRip.XviD-SPARKS(Thanks)[/code]

[b][size=200][color=black]SCREENSHOTS[/color][/size][/b]

[img]http://img19.imageshack.us/img19/4535/paranormalactivity42012u.jpg[/img]

[img]http://kastatic.com/i2/users/133df62bbf28e62494bb17fe11078f1a.gif[/img][img]http://kastatic.com/i2/users/133df62bbf28e62494bb17fe11078f1a.gif[/img]